<svg width="80" height="80" viewBox="0 0 80 80" fill="none" xmlns="http://www.w3.org/2000/svg">
<path d="M22.3347 16.6012C26.5535 13.5669 31.7577 12.2274 36.9171 12.8479C42.0765 13.4684 46.8148 16.0037 50.1938 19.9517C53.4108 24.1138 54.9342 29.3389 54.4581 34.5779C54.0927 36.1235 54.057 37.7288 54.3532 39.2891C54.6494 40.8495 55.271 42.33 56.1775 43.6342C56.5837 44.1515 56.7678 44.809 56.6893 45.4621C56.6107 46.1152 56.276 46.7103 55.7586 47.1166L44.0551 56.3073C43.5377 56.7135 42.8802 56.8976 42.2271 56.8191C41.5741 56.7405 40.9789 56.4058 40.5727 55.8885C39.5378 54.6966 38.2599 53.74 36.8247 53.083C35.3895 52.426 33.8303 52.0837 32.2519 52.0792C29.6413 51.7683 27.1204 50.9331 24.8405 49.6239C22.5606 48.3146 20.5686 46.5583 18.9842 44.4602C17.3205 42.3449 16.0948 39.9193 15.3786 37.3251C14.6625 34.7309 14.4704 32.02 14.8134 29.3507C15.1514 26.8308 15.9912 24.4042 17.2831 22.2143C18.5749 20.0245 20.2927 18.1158 22.3347 16.6012ZM32.6795 47.2024C36.3656 47.3469 39.9052 48.6838 42.7665 51.0121L50.92 44.6093C49.3513 41.3084 48.8643 37.5965 49.5284 34.0027C49.8525 30.0654 48.6989 26.1484 46.2926 23.0152C43.7519 20.0641 40.1993 18.17 36.333 17.705C32.4667 17.24 28.5663 18.2378 25.3983 20.5024C23.8738 21.6163 22.5911 23.0279 21.6277 24.6517C20.6643 26.2754 20.0402 28.0778 19.7932 29.9496C19.5198 31.9674 19.6525 34.0196 20.1835 35.9854C20.7145 37.9512 21.6332 39.791 22.8854 41.3967C24.0611 42.9648 25.5383 44.2821 27.2302 45.2712C28.9222 46.2603 30.7948 46.9013 32.738 47.1565L32.6795 47.2024Z" fill="white"/>
<path d="M45.587 58.2578L57.2906 49.0671C57.8079 48.6609 58.4655 48.4768 59.1185 48.5553C59.7716 48.6338 60.3667 48.9686 60.773 49.4859C61.1792 50.0033 61.3634 50.6608 61.2848 51.3139C61.2063 51.9669 60.8715 52.5621 60.3542 52.9683L48.6506 62.159C48.1333 62.5653 47.4758 62.7494 46.8227 62.6708C46.1696 62.5923 45.5745 62.2575 45.1682 61.7402C44.762 61.2229 44.5779 60.5654 44.6564 59.9123C44.735 59.2592 45.0697 58.6641 45.587 58.2578Z" fill="white"/>
<path d="M52.0205 62.6661L59.8228 56.539C60.3402 56.1327 60.9977 55.9486 61.6508 56.0272C62.3038 56.1057 62.899 56.4405 63.3052 56.9578C63.7115 57.4751 63.8956 58.1327 63.817 58.7857C63.7385 59.4388 63.4037 60.0339 62.8864 60.4402L55.084 66.5673C54.5667 66.9736 53.9092 67.1577 53.2561 67.0791C52.603 67.0006 52.0079 66.6658 51.6016 66.1485C51.1954 65.6312 51.0113 64.9736 51.0898 64.3206C51.1684 63.6675 51.5031 63.0724 52.0205 62.6661Z" fill="white"/>
</svg>
