<svg width="72" height="73" viewBox="0 0 72 73" fill="none" xmlns="http://www.w3.org/2000/svg">
<ellipse cx="36" cy="36.082" rx="36" ry="36.082" fill="#3C3C3C"/>
<ellipse cx="36.246" cy="35.9999" rx="25.7494" ry="25.6674" fill="#36AC0D"/>
<path d="M31.08 12.8748C22.4859 14.5148 17.3306 20.7199 15.8271 23.6174C24.9461 28.7344 28.5379 27.4989 29.1939 26.2415C30.3146 25.8588 32.2609 22.6497 31.08 12.8748Z" fill="white"/>
<path d="M56.2363 23.3403C51.7368 15.8368 44.136 13.1337 40.898 12.7201C39.2343 23.0435 41.6313 25.99 43.0377 26.1729C43.7829 27.0933 47.466 27.8153 56.2363 23.3403Z" fill="white"/>
<path d="M54.5776 51.3729C60.1753 44.6488 60.2179 36.5817 59.5395 33.3887C49.2456 35.226 47.2554 38.4612 47.547 39.8492C46.9242 40.8564 47.4585 44.5714 54.5776 51.3729Z" fill="white"/>
<path d="M27.2002 57.7196C35.2064 61.2478 42.9729 59.0659 45.8554 57.5339C41.2529 48.1448 37.5945 47.1231 36.3406 47.7858C35.2007 47.4647 31.7768 49.0019 27.2002 57.7196Z" fill="white"/>
<path d="M12.9791 33.3201C11.8331 42.1277 16.2008 49.0795 18.5279 51.4545C26.3831 44.3002 26.3295 40.4434 25.3208 39.4093C25.3068 38.2068 22.8188 35.3054 12.9791 33.3201Z" fill="white"/>
<circle cx="29.8496" cy="33.7859" r="1.47608" fill="white"/>
<circle cx="36.2461" cy="29.1936" r="1.47608" fill="white"/>
<circle cx="42.4785" cy="33.622" r="1.47608" fill="white"/>
<circle cx="40.1821" cy="41.3303" r="1.47608" fill="white"/>
<circle cx="32.3096" cy="41.4943" r="1.47608" fill="white"/>
<circle cx="36.1639" cy="36.0001" r="3.5262" fill="white"/>
</svg>
