<svg width="24" height="21" viewBox="0 0 24 21" fill="none" xmlns="http://www.w3.org/2000/svg">
<path d="M21.13 15.2049H7.72886L4.88135 3.11877H23.494L21.13 15.2049Z" stroke="white" stroke-linecap="round" stroke-linejoin="round"/>
<path d="M10.6827 20.2812C11.0832 20.2812 11.4079 19.9565 11.4079 19.556C11.4079 19.1555 11.0832 18.8308 10.6827 18.8308C10.2822 18.8308 9.95752 19.1555 9.95752 19.556C9.95752 19.9565 10.2822 20.2812 10.6827 20.2812Z" stroke="white" stroke-linecap="round" stroke-linejoin="round"/>
<path d="M17.9342 20.2812C18.3347 20.2812 18.6593 19.9565 18.6593 19.556C18.6593 19.1555 18.3347 18.8308 17.9342 18.8308C17.5337 18.8308 17.209 19.1555 17.209 19.556C17.209 19.9565 17.5337 20.2812 17.9342 20.2812Z" stroke="white" stroke-linecap="round" stroke-linejoin="round"/>
<path d="M22.0436 9.16193H15.2754" stroke="white" stroke-linecap="round" stroke-linejoin="round"/>
<path d="M4.91029 3.20581L3.66783 1.96819C3.06909 1.36789 2.26684 1.01421 1.4198 0.977126L0.771973 0.94812" stroke="white" stroke-linecap="round" stroke-linejoin="round"/>
</svg>
